<svg width="25" height="25" viewBox="0 0 25 25" fill="none" xmlns="http://www.w3.org/2000/svg">
    <path d="M17.7085 6.24992H22.9168V8.33325H20.8335V21.8749C20.8335 22.1512 20.7238 22.4161 20.5284 22.6115C20.3331 22.8068 20.0681 22.9166 19.7918 22.9166H5.2085C4.93223 22.9166 4.66728 22.8068 4.47193 22.6115C4.27658 22.4161 4.16683 22.1512 4.16683 21.8749V8.33325H2.0835V6.24992H7.29183V3.12492C7.29183 2.84865 7.40158 2.5837 7.59693 2.38835C7.79228 2.193 8.05723 2.08325 8.3335 2.08325H16.6668C16.9431 2.08325 17.2081 2.193 17.4034 2.38835C17.5988 2.5837 17.7085 2.84865 17.7085 3.12492V6.24992ZM18.7502 8.33325H6.25016V20.8333H18.7502V8.33325ZM9.37516 11.4583H11.4585V17.7083H9.37516V11.4583ZM13.5418 11.4583H15.6252V17.7083H13.5418V11.4583ZM9.37516 4.16659V6.24992H15.6252V4.16659H9.37516Z" fill="#FF4F5E"/>
</svg>
