<svg width="147" height="147" viewBox="0 0 147 147" fill="none" xmlns="http://www.w3.org/2000/svg">
<g filter="url(#filter0_d_40_1136)">
<g filter="url(#filter1_d_40_1136)">
<circle cx="73.5" cy="59.5" r="49.5" fill="white"/>
</g>
<path d="M73.5001 36.5833C74.1079 36.5833 74.6907 36.8247 75.1205 37.2545C75.5503 37.6842 75.7917 38.2671 75.7917 38.8749V45.7499C75.7917 46.3577 75.5503 46.9406 75.1205 47.3704C74.6907 47.8001 74.1079 48.0416 73.5001 48.0416C72.8923 48.0416 72.3094 47.8001 71.8796 47.3704C71.4498 46.9406 71.2084 46.3577 71.2084 45.7499V38.8749C71.2084 38.2671 71.4498 37.6842 71.8796 37.2545C72.3094 36.8247 72.8923 36.5833 73.5001 36.5833ZM73.5001 70.9583C74.1079 70.9583 74.6907 71.1997 75.1205 71.6295C75.5503 72.0592 75.7917 72.6421 75.7917 73.2499V80.1249C75.7917 80.7327 75.5503 81.3156 75.1205 81.7454C74.6907 82.1751 74.1079 82.4166 73.5001 82.4166C72.8923 82.4166 72.3094 82.1751 71.8796 81.7454C71.4498 81.3156 71.2084 80.7327 71.2084 80.1249V73.2499C71.2084 72.6421 71.4498 72.0592 71.8796 71.6295C72.3094 71.1997 72.8923 70.9583 73.5001 70.9583ZM93.3459 48.0416C93.6498 48.5679 93.7321 49.1934 93.5748 49.7805C93.4175 50.3676 93.0335 50.8681 92.5071 51.172L86.5534 54.6095C86.2927 54.7624 86.0043 54.8621 85.7049 54.9031C85.4054 54.944 85.1008 54.9253 84.8086 54.8481C84.5165 54.7708 84.2424 54.6365 84.0024 54.453C83.7623 54.2694 83.5609 54.0401 83.4098 53.7784C83.2587 53.5166 83.1608 53.2276 83.1218 52.9279C83.0829 52.6282 83.1036 52.3237 83.1828 52.0321C83.262 51.7404 83.3981 51.4673 83.5832 51.2284C83.7684 50.9896 83.999 50.7897 84.2617 50.6403L90.2155 47.2028C90.7418 46.899 91.3673 46.8166 91.9544 46.9739C92.5415 47.1312 93.042 47.5153 93.3459 48.0416ZM63.5771 65.2291C63.881 65.7554 63.9634 66.3809 63.8061 66.968C63.6488 67.5551 63.2647 68.0556 62.7384 68.3595L56.7846 71.797C56.5239 71.9498 56.2355 72.0496 55.9361 72.0906C55.6367 72.1315 55.3321 72.1128 55.0399 72.0356C54.7477 71.9583 54.4737 71.824 54.2336 71.6404C53.9935 71.4569 53.7921 71.2276 53.641 70.9659C53.4899 70.7041 53.3921 70.4151 53.3531 70.1154C53.3141 69.8157 53.3349 69.5112 53.414 69.2196C53.4932 68.9279 53.6293 68.6548 53.8145 68.4159C53.9997 68.1771 54.2303 67.9772 54.493 67.8278L60.4467 64.3903C60.9731 64.0865 61.5986 64.0041 62.1856 64.1614C62.7727 64.3187 63.2732 64.7028 63.5771 65.2291ZM93.3459 70.9583C93.042 71.4846 92.5415 71.8686 91.9544 72.0259C91.3673 72.1832 90.7418 72.1009 90.2155 71.797L84.2617 68.3595C83.7397 68.0534 83.3599 67.5533 83.2052 66.9683C83.0505 66.3832 83.1335 65.7607 83.4361 65.2367C83.7387 64.7126 84.2363 64.3295 84.8203 64.1709C85.4043 64.0124 86.0273 64.0912 86.5534 64.3903L92.5071 67.8278C93.0335 68.1317 93.4175 68.6323 93.5748 69.2193C93.7321 69.8064 93.6498 70.4319 93.3459 70.9583ZM63.5771 53.7708C63.2732 54.2971 62.7727 54.6811 62.1856 54.8384C61.5986 54.9957 60.9731 54.9134 60.4467 54.6095L54.493 51.172C54.2303 51.0226 53.9997 50.8228 53.8145 50.5839C53.6293 50.345 53.4932 50.0719 53.414 49.7803C53.3349 49.4886 53.3141 49.1841 53.3531 48.8844C53.3921 48.5847 53.4899 48.2957 53.641 48.034C53.7921 47.7722 53.9935 47.543 54.2336 47.3594C54.4737 47.1758 54.7477 47.0415 55.0399 46.9643C55.3321 46.887 55.6367 46.8683 55.9361 46.9093C56.2355 46.9502 56.5239 47.05 56.7846 47.2028L62.7384 50.6403C63.2647 50.9442 63.6488 51.4448 63.8061 52.0318C63.9634 52.6189 63.881 53.2444 63.5771 53.7708Z" fill="#59CBB7"/>
</g>
<defs>
<filter id="filter0_d_40_1136" x="20" y="10" width="107" height="107" filterUnits="userSpaceOnUse" color-interpolation-filters="sRGB">
<feFlood flood-opacity="0" result="BackgroundImageFix"/>
<feColorMatrix in="SourceAlpha" type="matrix" values="0 0 0 0 0 0 0 0 0 0 0 0 0 0 0 0 0 0 127 0" result="hardAlpha"/>
<feOffset dy="4"/>
<feGaussianBlur stdDeviation="2"/>
<feComposite in2="hardAlpha" operator="out"/>
<feColorMatrix type="matrix" values="0 0 0 0 0 0 0 0 0 0 0 0 0 0 0 0 0 0 0.25 0"/>
<feBlend mode="normal" in2="BackgroundImageFix" result="effect1_dropShadow_40_1136"/>
<feBlend mode="normal" in="SourceGraphic" in2="effect1_dropShadow_40_1136" result="shape"/>
</filter>
<filter id="filter1_d_40_1136" x="0" y="0" width="147" height="147" filterUnits="userSpaceOnUse" color-interpolation-filters="sRGB">
<feFlood flood-opacity="0" result="BackgroundImageFix"/>
<feColorMatrix in="SourceAlpha" type="matrix" values="0 0 0 0 0 0 0 0 0 0 0 0 0 0 0 0 0 0 127 0" result="hardAlpha"/>
<feOffset dy="14"/>
<feGaussianBlur stdDeviation="12"/>
<feComposite in2="hardAlpha" operator="out"/>
<feColorMatrix type="matrix" values="0 0 0 0 0.34902 0 0 0 0 0.796078 0 0 0 0 0.717647 0 0 0 0.32 0"/>
<feBlend mode="normal" in2="BackgroundImageFix" result="effect1_dropShadow_40_1136"/>
<feBlend mode="normal" in="SourceGraphic" in2="effect1_dropShadow_40_1136" result="shape"/>
</filter>
</defs>
</svg>
