<svg width="39" height="39" viewBox="0 0 39 39" fill="none" xmlns="http://www.w3.org/2000/svg">
    <path d="M4.875 21.1251H14.625V17.8751H4.875V2.99986C4.87502 2.85867 4.91184 2.71993 4.98182 2.5973C5.05179 2.47467 5.15252 2.3724 5.27406 2.30055C5.39561 2.22871 5.53377 2.18978 5.67494 2.1876C5.81612 2.18542 5.95542 2.22006 6.07912 2.28811L36.0799 18.7884C36.2073 18.8585 36.3135 18.9615 36.3875 19.0867C36.4615 19.2119 36.5005 19.3547 36.5005 19.5001C36.5005 19.6455 36.4615 19.7883 36.3875 19.9135C36.3135 20.0387 36.2073 20.1417 36.0799 20.2119L6.07912 36.7121C5.95542 36.7802 5.81612 36.8148 5.67494 36.8126C5.53377 36.8104 5.39561 36.7715 5.27406 36.6997C5.15252 36.6278 5.05179 36.5255 4.98182 36.4029C4.91184 36.2803 4.87502 36.1415 4.875 36.0004V21.1251Z" fill="#59CBB7"/>
</svg>
